HIERARCHY
ROOT pelvis
{
	OFFSET 0.00 0.00 0.00
	CHANNELS 6 Xposition Yposition Zposition Xrotation Yrotation Zrotation
	JOINT lfemur
	{
		OFFSET 0.00000 3.26371 0.00000
		CHANNELS 3 Xrotation Yrotation Zrotation
		JOINT ltibia
		{
			OFFSET 0.00000 0.00000 -17.39272
			CHANNELS 3 Xrotation Yrotation Zrotation
			JOINT lfoot
			{
				OFFSET 0.00000 0.00000 -17.72520
				CHANNELS 3 Xrotation Yrotation Zrotation
				JOINT ltoes
				{
					OFFSET 4.21806 0.00000 0.00000
					CHANNELS 3 Xrotation Yrotation Zrotation
				}
			}
		}
	}
	JOINT rfemur
	{
		OFFSET 0.00000 -3.26371 0.00000
		CHANNELS 3 Xrotation Yrotation Zrotation
		JOINT rtibia
		{
			OFFSET 0.00000 0.00000 -17.39272
			CHANNELS 3 Xrotation Yrotation Zrotation
			JOINT rfoot
			{
				OFFSET 0.00000 0.00000 -17.72520
				CHANNELS 3 Xrotation Yrotation Zrotation
				JOINT rtoes
				{
					OFFSET 4.21806 0.00000 0.00000
					CHANNELS 3 Xrotation Yrotation Zrotation
				}
			}
		}
	}
	JOINT thorax
	{
		OFFSET -1.96850 0.00000 6.16593
		CHANNELS 6 Xposition Yposition Zposition Xrotation Yrotation Zrotation
		JOINT head
		{
			OFFSET 0.00000 0.00000 18.21355
			CHANNELS 6 Xposition Yposition Zposition Xrotation Yrotation Zrotation
		}
		JOINT lclavicle
		{
			OFFSET 0.00000 0.00000 15.13875
			CHANNELS 3 Xrotation Yrotation Zrotation
			JOINT lhumerus
			{
				OFFSET 0.00000 7.18963 -1.52650
				CHANNELS 3 Xrotation Yrotation Zrotation
				JOINT lradius
				{
					OFFSET 0.00000 0.00000 -10.12096
					CHANNELS 3 Xrotation Yrotation Zrotation
					JOINT lhand
					{
						OFFSET 0.00000 0.00000 -10.45726
						CHANNELS 3 Xrotation Yrotation Zrotation
					}
				}
			}
		}
		JOINT rclavicle
		{
			OFFSET 0.00000 0.00000 15.13875
			CHANNELS 3 Xrotation Yrotation Zrotation
			JOINT rhumerus
			{
				OFFSET 0.00000 -7.18963 -1.52650
				CHANNELS 3 Xrotation Yrotation Zrotation
				JOINT rradius
				{
					OFFSET 0.00000 0.00000 -10.12096
					CHANNELS 3 Xrotation Yrotation Zrotation
					JOINT rhand
					{
						OFFSET 0.00000 0.00000 -10.45726
						CHANNELS 3 Xrotation Yrotation Zrotation
					}
				}
			}
		}
	}
}
MOTION
Frames: 11
Frame Time: 0.008333
 -73.0799 -4.4387 30.0892 -0.4928 -1.3627 -28.8274 37.2944 -35.0952 50.7026 -0.0000 73.0859 0.0000 -0.0000 -3.2141 -3.9442 0.0000 -22.9350 -0.0000 -20.4232 20.6214 -6.1490 -0.0000 26.2687 -0.0000 -0.0000 -2.6410 -19.3403 -0.0000 -43.0744 -0.0000 -75.4911 -2.7062 36.0384 -1.9938 4.6987 9.8981 -73.9537 -1.7874 54.8824 1.2989 8.8939 -20.3369 -19.6590 0.0000 -6.4211 37.4504 0.9524 4.8887 0.0000 -25.8739 -33.9294 -4.3616 0.2229 -0.0000 14.7850 -0.0000 -0.5144 -35.8132 -2.2540 15.8089 -0.0000 -34.2824 31.0358 20.8042 -0.5174 0.0000
 -73.0815 -4.4519 30.0919 -0.4778 -1.3852 -28.8017 37.2672 -35.0901 50.6681 -0.0000 73.0738 0.0000 -0.0000 -3.1936 -3.9773 0.0000 -22.8970 -0.0000 -20.3822 20.6643 -6.0819 -0.0000 26.1984 0.0000 0.0000 -2.4040 -19.6304 0.0000 -43.6219 -0.0000 -75.4881 -2.7252 36.0417 -2.0453 4.6861 9.9779 -73.9420 -1.7963 54.8809 1.4207 8.8630 -20.4215 -19.6479 0.0000 -6.4084 37.5207 0.7718 4.6802 0.0000 -25.6571 -33.8092 -4.4096 0.1229 -0.0000 14.8193 -0.0000 -0.5743 -35.7581 -2.2148 15.6126 0.0000 -34.2708 31.2637 20.8562 -0.7055 0.0000
 -73.0740 -4.4580 30.0917 -0.4740 -1.3914 -28.8003 37.2675 -35.0922 50.6581 -0.0000 73.0993 0.0000 -0.0000 -3.2399 -3.9421 0.0000 -22.7264 -0.0000 -20.3850 20.6829 -6.0682 -0.0000 26.2094 0.0000 0.0000 -2.4607 -19.5869 0.0000 -43.4569 -0.0000 -75.4858 -2.7381 36.0418 -2.0606 4.6980 9.9889 -73.9414 -1.8089 54.8835 1.4019 8.9074 -20.4508 -19.6456 0.0000 -6.3686 37.5209 0.7554 4.7167 0.0000 -25.8382 -33.8344 -4.6308 0.4840 -0.0000 14.8103 -0.0000 -0.5992 -35.7361 -2.2055 15.6454 -0.0000 -34.2706 31.1149 20.2936 -1.4265 0.0000
 -73.0762 -4.4658 30.0916 -0.4678 -1.3941 -28.8150 37.2499 -35.0893 50.6303 -0.0000 73.0772 0.0000 -0.0000 -3.2289 -3.9034 0.0000 -22.7694 -0.0000 -20.4021 20.6846 -6.0178 -0.0000 26.1846 0.0000 0.0000 -2.1534 -19.8361 0.0000 -44.1109 -0.0000 -75.4828 -2.7462 36.0411 -2.0501 4.7041 9.9430 -73.9370 -1.8241 54.8815 1.3909 8.8981 -20.3764 -19.6197 0.0000 -6.3873 37.5268 0.7621 4.6658 0.0000 -25.6934 -33.7193 -4.3113 0.0992 0.0000 14.8260 -0.0000 -0.5791 -35.7553 -2.2541 15.6051 -0.0000 -34.2714 31.2753 20.2067 -1.4470 0.0000
 -73.0735 -4.4763 30.0950 -0.4618 -1.3996 -28.8139 37.2362 -35.0763 50.6122 -0.0000 73.0562 0.0000 -0.0000 -3.2461 -3.8831 0.0000 -22.7493 -0.0000 -20.3752 20.6980 -6.0549 -0.0000 26.2098 0.0000 0.0000 -2.5532 -19.5947 -0.0000 -43.2538 -0.0000 -75.4781 -2.7545 36.0416 -2.0547 4.7047 9.9406 -73.9340 -1.8353 54.8868 1.4108 8.9259 -20.3434 -19.6105 0.0000 -6.3801 37.5251 0.7479 4.6595 0.0000 -25.7298 -33.7103 -4.4001 0.2056 0.0000 14.8388 -0.0000 -0.5787 -35.7671 -2.2550 15.5745 -0.0000 -34.2591 31.3472 20.8784 -0.7326 0.0000
 -73.0709 -4.4831 30.0961 -0.4560 -1.4023 -28.8128 37.2320 -35.0723 50.5984 -0.0000 73.0616 0.0000 -0.0000 -3.2058 -3.8707 0.0000 -22.8089 -0.0000 -20.3697 20.6976 -6.0579 -0.0000 26.2160 0.0000 0.0000 -2.4359 -19.6721 -0.0000 -43.4870 -0.0000 -75.4733 -2.7622 36.0431 -2.0537 4.7099 9.9297 -73.9298 -1.8435 54.8848 1.4179 8.9471 -20.3848 -19.6006 0.0000 -6.3882 37.5295 0.7350 4.6472 0.0000 -25.7215 -33.6384 -4.4945 0.1583 -0.0000 14.8459 -0.0000 -0.5830 -35.7744 -2.2492 15.5507 -0.0000 -34.2077 31.2949 20.5615 -0.8754 0.0000
 -73.0695 -4.4950 30.0971 -0.4495 -1.4089 -28.8062 37.2312 -35.0514 50.5933 -0.0000 73.0355 0.0000 0.0000 -3.2032 -3.8857 0.0000 -22.7754 -0.0000 -20.3581 20.7119 -6.0761 -0.0000 26.2219 -0.0000 0.0000 -2.4260 -19.6674 -0.0000 -43.5025 -0.0000 -75.4706 -2.7720 36.0449 -2.0626 4.6962 9.9262 -73.9157 -1.8491 54.8850 1.4191 8.9840 -20.4870 -19.5879 0.0000 -6.4047 37.5390 0.7133 4.6204 0.0000 -25.6753 -33.6239 -4.4379 0.1901 -0.0000 14.8582 -0.0000 -0.5633 -35.7831 -2.2579 15.5747 -0.0000 -34.1341 31.2724 20.6475 -0.8418 0.0000
 -73.0660 -4.5014 30.0982 -0.4448 -1.4085 -28.8095 37.2219 -35.0502 50.5713 -0.0000 73.0372 0.0000 -0.0000 -3.1886 -3.8441 0.0000 -22.8333 -0.0000 -20.3579 20.7184 -6.0821 -0.0000 26.2187 0.0000 0.0000 -2.4379 -19.6644 0.0000 -43.4704 -0.0000 -75.4653 -2.7793 36.0461 -2.0613 4.6974 9.9250 -73.9176 -1.8599 54.8849 1.4314 8.9988 -20.4643 -19.5810 0.0000 -6.4128 37.5426 0.7002 4.6114 0.0000 -25.6714 -33.6285 -4.5443 0.2249 0.0000 14.8610 -0.0000 -0.5637 -35.7945 -2.2469 15.5439 -0.0000 -34.1271 31.3454 20.6134 -0.7807 0.0000
 -73.0638 -4.5132 30.0990 -0.4381 -1.4126 -28.8047 37.2195 -35.0316 50.5588 -0.0000 73.0192 0.0000 -0.0000 -3.1661 -3.8644 0.0000 -22.8461 -0.0000 -20.3460 20.7289 -6.1060 -0.0000 26.2233 0.0000 0.0000 -2.4206 -19.6690 0.0000 -43.4871 0.0000 -75.4640 -2.7893 36.0476 -2.0725 4.6896 9.9286 -73.9289 -1.8723 54.8975 1.4607 9.1364 -20.3975 -19.5719 0.0000 -6.4293 37.5575 0.6728 4.5961 0.0000 -25.6446 -33.6359 -4.5203 0.2367 -0.0000 14.8681 -0.0000 -0.5602 -35.7972 -2.2348 15.5411 -0.0000 -34.1159 31.3325 20.7701 -0.7170 0.0000
 -73.0624 -4.5200 30.0995 -0.4319 -1.4125 -28.8076 37.2218 -35.0266 50.5572 -0.0000 73.0196 0.0000 0.0000 -3.1629 -3.8464 0.0000 -22.8513 -0.0000 -20.3459 20.7380 -6.1111 -0.0000 26.2150 0.0000 0.0000 -2.4226 -19.6557 0.0000 -43.5107 -0.0000 -75.4604 -2.7971 36.0493 -2.0751 4.6918 9.9315 -73.9296 -1.8810 54.8967 1.4574 9.1483 -20.4354 -19.5622 0.0000 -6.4363 37.5663 0.6578 4.5862 0.0000 -25.6473 -33.6870 -4.6076 0.2372 -0.0000 14.8708 -0.0000 -0.5574 -35.8014 -2.2234 15.5225 -0.0000 -34.1034 31.3483 20.8497 -0.4743 0.0000
 -73.0569 -4.5325 30.0994 -0.4221 -1.4144 -28.8101 37.2330 -34.9951 50.5689 -0.0000 73.0170 0.0000 -0.0000 -3.1425 -3.8816 0.0000 -22.9099 -0.0000 -20.3466 20.7612 -6.1317 -0.0000 26.1961 0.0000 0.0000 -2.4354 -19.6496 0.0000 -43.4341 -0.0000 -75.4554 -2.8080 36.0505 -2.0840 4.6700 9.9419 -73.9297 -1.8853 54.9021 1.5074 9.2292 -20.4282 -19.5534 0.0000 -6.4392 37.5763 0.6379 4.5657 0.0000 -25.6139 -33.7092 -4.5236 0.1743 -0.0000 14.8844 -0.0000 -0.5624 -35.8049 -2.2038 15.4852 -0.0000 -34.0416 31.3714 20.6175 -0.7739 0.0000
